# xmcd
#
# Track frame offsets:
#	150
#	13552
#	27126
#	44781
#	57222
#	68059
#	81399
#	93772
#	106506
#	118299
#	133200
#	147880
#	158652
#	171501
#	182353
#	192576
#	202590
#	212480
#	221074
#	232714
#	246407
#	255252
#	263742
#	273602
#	284218
#
# Disc length: 3956 seconds
# Revision: 1
# Processed by: cddbd v1.5.2PL0 Copyright (c) Steve Scherf et al.
# Submitted via: dBpowerAMP V12.0
#
DISCID=6c0f7219
DTITLE=Various Artist - Songs of the Wild West
DYEAR=1962
DGENRE=Western
TTITLE0=Gene Pitney - (The Man Who Shot) Liberty Valance
TTITLE1=Johnny Cash - Don't Take Your Guns to Town
TTITLE2=Marty Robbins - Big Iron
TTITLE3=Eddy Arnold - (Ghost) Riders in the Sky
TTITLE4=Frankie Laine - The 3:10 to Yuma
TTITLE5=Burl Ives - Delia
TTITLE6=Slim Whitman - North Wind
TTITLE7=Katie Lee - Gunslinger
TTITLE8=Kingston Trio, The - Jesse James
TTITLE9=Don Gibson - The Streets of Laredo
TTITLE10=Patsy Cline - The Wayward Wind
TTITLE11=Jimmie Driftwood - Mooshatanio
TTITLE12=Hank Thompson - Rovin' Gambler
TTITLE13=Rusty Draper - The Battle of New Orleans
TTITLE14=Tex Ritter - Billy the Kid
TTITLE15=Johnny Horton - Mean, Mean Son of a Gun
TTITLE16=Marty Robbins - Five Brothers
TTITLE17=Cowboy Copas - The Rebel-Johnny Yuma
TTITLE18=Frankie Laine - Wanted Man
TTITLE19=Tennessee Ernie Ford - Mule Train
TTITLE20=Merle Travis - Nine Pound Hammer
TTITLE21=Jimmy Driftwood - Shoot the Buffalo
TTITLE22=Johnny Cash - Hank and Joe and Me
TTITLE23=Tex Johnson - The Old Chisholm Trail
TTITLE24=Gene Autry - Back in the Saddle Again
EXTD=
EXTT0=
EXTT1=
EXTT2=
EXTT3=
EXTT4=
EXTT5=
EXTT6=
EXTT7=
EXTT8=
EXTT9=
EXTT10=
EXTT11=
EXTT12=
EXTT13=
EXTT14=
EXTT15=
EXTT16=
EXTT17=
EXTT18=
EXTT19=
EXTT20=
EXTT21=
EXTT22=
EXTT23=
EXTT24=
PLAYORDER=
